<svg width="70" height="70" viewBox="0 0 70 70" fill="none" xmlns="http://www.w3.org/2000/svg">
<path d="M3.76618 70C4.07125 70 4.37632 69.9623 4.67762 69.8869L19.7427 66.1168C20.4056 65.9509 21.012 65.6078 21.4941 65.1252L67.793 18.779C69.2166 17.3539 70 15.4613 70 13.4481C70 11.4348 69.2166 9.5422 67.793 8.11709L61.8196 2.13766C58.9723 -0.712555 54.0159 -0.712555 51.1686 2.13766L4.8697 48.4839C4.38786 48.9668 4.04558 49.5713 3.87917 50.2332L0.112889 65.3137C-0.0262273 65.8696 -0.0369123 66.45 0.081646 67.0106C0.200204 67.5713 0.444885 68.0975 0.797092 68.5493C1.1493 69.0011 1.59976 69.3666 2.11425 69.618C2.62873 69.8693 3.19368 70 3.76618 70ZM56.4941 7.46863L62.4674 13.4481L56.4941 19.4275L50.5208 13.4481L56.4941 7.46863ZM10.9334 53.0759L45.1953 18.779L51.1686 24.7584L16.903 59.0553L8.94105 61.0459L10.9334 53.0759Z" fill="white"/>
</svg>
