<svg width="70" height="70" viewBox="0 0 70 70" fill="none" xmlns="http://www.w3.org/2000/svg">
<path fill-rule="evenodd" clip-rule="evenodd" d="M35 0C15.6682 0 0 16.0648 0 35.8859C0 51.7385 10.0256 65.1912 23.9357 69.9405C25.6868 70.2644 26.3184 69.1598 26.3184 68.2099C26.3184 67.3572 26.2904 65.0977 26.2798 62.1078C16.542 64.2738 14.4857 57.2937 14.4857 57.2937C12.8995 53.1489 10.6011 52.0443 10.6011 52.0443C7.42531 49.8172 10.8432 49.8676 10.8432 49.8676C14.3593 50.1194 16.2016 53.5663 16.2016 53.5663C19.3247 59.0495 24.3989 57.4664 26.3851 56.549C26.7044 54.2283 27.6168 52.6452 28.6134 51.7493C20.8442 50.8462 12.675 47.7664 12.675 34.0114C12.675 30.1004 14.04 26.8911 16.2683 24.3869C15.9139 23.4766 14.7032 19.8247 16.6157 14.8883C16.6157 14.8883 19.5528 13.9205 26.2377 18.5618C29.0927 17.7655 32.0377 17.359 34.9965 17.3529C37.9553 17.3578 40.9005 17.7643 43.7553 18.5618C50.4437 13.9169 53.3773 14.8883 53.3773 14.8883C55.2898 19.8247 54.0896 23.4766 53.7247 24.3869C55.9705 26.8911 57.318 30.0968 57.318 34.0114C57.318 47.8024 49.1418 50.8318 41.3445 51.7205C42.5902 52.8287 43.7132 55.0163 43.7132 58.3623C43.7132 63.162 43.671 67.0334 43.671 68.2099C43.671 69.1706 44.2957 70.2859 46.0818 69.9333C59.985 65.1769 70 51.7349 70 35.8859C70 16.0648 54.3318 0 35 0Z" fill="white"/>
</svg>
