<svg width="90" height="70" viewBox="0 0 90 70" fill="none" xmlns="http://www.w3.org/2000/svg">
<path d="M86.4 0H3.2C2.35131 0 1.53737 0.335227 0.937258 0.931934C0.337142 1.52864 0 2.33795 0 3.18182V66.8182C0 67.6621 0.337142 68.4714 0.937258 69.0681C1.53737 69.6648 2.35131 70 3.2 70H86.4C87.2487 70 88.0626 69.6648 88.6627 69.0681C89.2629 68.4714 89.6 67.6621 89.6 66.8182V3.18182C89.6 2.33795 89.2629 1.52864 88.6627 0.931934C88.0626 0.335227 87.2487 0 86.4 0ZM46.764 40.6935C46.2024 41.1276 45.5113 41.3632 44.8 41.3632C44.0887 41.3632 43.3976 41.1276 42.836 40.6935L11.51 16.4679L15.438 11.4446L44.8 34.1509L74.162 11.4446L78.09 16.4679L46.764 40.6935Z" fill="white"/>
</svg>
