<svg width="106" height="70" viewBox="0 0 106 70" fill="none" xmlns="http://www.w3.org/2000/svg">
<path d="M105.593 46.375C105.593 49 100.314 50.75 94.154 51.625C90.1942 44.1875 82.2747 38.5 73.0353 34.5625C73.9153 33.25 74.7952 32.375 75.6751 31.0625H79.1949C92.834 30.625 105.593 38.9375 105.593 46.375ZM29.9181 30.625H26.3983C12.7592 30.625 0 38.9375 0 46.375C0 49 5.27966 50.75 11.4393 51.625C15.399 44.1875 23.3185 38.5 32.5579 34.5625L29.9181 30.625ZM52.7966 35C62.476 35 70.3955 27.125 70.3955 17.5C70.3955 7.875 62.476 0 52.7966 0C43.1172 0 35.1977 7.875 35.1977 17.5C35.1977 27.125 43.1172 35 52.7966 35ZM52.7966 39.375C34.7578 39.375 17.5989 50.75 17.5989 61.25C17.5989 70 52.7966 70 52.7966 70C52.7966 70 87.9944 70 87.9944 61.25C87.9944 50.75 70.8355 39.375 52.7966 39.375ZM77.875 26.25H79.1949C86.6744 26.25 92.3941 20.5625 92.3941 13.125C92.3941 5.6875 86.6744 0 79.1949 0C76.9951 0 75.2352 0.437501 73.4753 1.3125C76.9951 5.6875 79.1949 11.375 79.1949 17.5C79.1949 20.5625 78.755 23.625 77.875 26.25ZM26.3983 26.25H27.7182C26.8383 23.625 26.3983 20.5625 26.3983 17.5C26.3983 11.375 28.5982 5.6875 32.1179 1.3125C30.3581 0.437501 28.5982 0 26.3983 0C18.9188 0 13.1992 5.6875 13.1992 13.125C13.1992 20.5625 18.9188 26.25 26.3983 26.25Z" fill="white"/>
</svg>
