<svg width="70" height="70" viewBox="0 0 70 70" fill="none" xmlns="http://www.w3.org/2000/svg">
<path d="M23.7421 19.9553C21.9709 19.9553 20.7688 20.1276 20.1437 20.3039V31.6881C20.889 31.8564 21.7986 31.9125 23.0568 31.9125C27.6931 31.9125 30.5541 29.5684 30.5541 25.6174C30.5501 22.0751 28.0898 19.9553 23.7421 19.9553Z" fill="white"/>
<path d="M65.7164 0H4.2876C1.9194 0 0 1.91539 0 4.27557V65.7004C0 68.0646 1.9194 69.984 4.2876 69.984H65.7164C68.0806 69.984 70 68.0646 70 65.7004V4.27958C70 1.91539 68.0806 0 65.7164 0ZM35.6391 34.5492C32.6699 37.3542 28.2581 38.6124 23.1169 38.6124C21.9669 38.6124 20.9411 38.5563 20.1397 38.4401V52.2325H11.4964V14.1811C14.1851 13.7283 17.9598 13.3837 23.2852 13.3837C28.6588 13.3837 32.4976 14.4095 35.0661 16.4732C37.5385 18.4206 39.1934 21.6263 39.1934 25.401C39.1934 29.1757 37.9312 32.3693 35.6391 34.5492ZM48.6662 52.8015C44.9957 52.8015 41.7379 52.0081 39.6182 50.8581L41.1609 44.623C42.7638 45.5888 46.0856 46.7348 48.6662 46.7348C51.2909 46.7348 52.3808 45.8212 52.3808 44.3866C52.3808 42.9601 51.5233 42.2749 48.2655 41.185C42.4873 39.2415 40.2513 36.0919 40.3074 32.7741C40.3074 27.5728 44.7713 23.6138 51.6956 23.6138C54.9574 23.6138 57.8745 24.3632 59.5896 25.2167L58.0468 31.2273C56.7886 30.5381 54.3883 29.6285 51.9801 29.6285C49.8683 29.6285 48.6702 30.486 48.6702 31.9165C48.6702 33.2309 49.7481 33.9161 53.1822 35.1222C58.5036 36.9495 60.7396 39.6422 60.7917 43.7535C60.7917 48.9667 56.6644 52.8015 48.6662 52.8015Z" fill="white"/>
</svg>
