<svg width="70" height="70" viewBox="0 0 70 70" fill="none" xmlns="http://www.w3.org/2000/svg">
<path d="M49.3415 0C38.782 0 30.067 8.01223 28.8659 18.2614L5.07315 51.9186L3.68903 53.946L5.35056 55.699L7.74695 58.0982L0 65.7504L4.24681 70L11.8078 62.3449L15.8628 66.3997L17.9847 64.9241L51.8323 41.1294C62.0435 39.8988 70 31.1931 70 20.6577C70 9.2812 60.7184 0 49.3415 0ZM49.3415 5.90219C57.5252 5.90219 64.0976 12.4743 64.0976 20.6577C64.1074 23.5391 63.2733 26.3603 61.6982 28.7732L41.2256 8.29848C43.6389 6.72454 46.4602 5.89152 49.3415 5.90219ZM36.9817 12.5422L57.4573 33.0169C55.044 34.5908 52.2227 35.4238 49.3415 35.4132C41.1577 35.4132 34.5854 28.8411 34.5854 20.6577C34.5756 17.7763 35.4096 14.955 36.9847 12.5422H36.9817ZM29.7896 27.1147C30.8074 30.1484 32.5095 32.9072 34.7643 35.1778C37.0191 37.4483 39.7661 39.1697 42.7927 40.2087L16.6006 58.7445L11.3445 53.3057L29.7896 27.1147Z" fill="white"/>
</svg>
