<svg width="68" height="70" viewBox="0 0 68 70" fill="none" xmlns="http://www.w3.org/2000/svg">
<path d="M33.9394 69.1113C26.0627 69.1113 19.8935 54.1274 19.8935 34.9999C19.8935 15.8725 26.0627 0.88855 33.9394 0.88855C41.8161 0.88855 47.9853 15.8725 47.9853 34.9999C47.9853 54.1274 41.8161 69.1113 33.9394 69.1113ZM33.9394 2.8951C27.4181 2.8951 21.9001 17.5971 21.9001 34.9999C21.9001 52.4028 27.4181 67.1048 33.9394 67.1048C40.4607 67.1048 45.9787 52.4028 45.9787 34.9999C45.9787 17.5971 40.4607 2.8951 33.9394 2.8951Z" fill="white" stroke="white" stroke-width="1.3"/>
<path d="M56.0114 58.4045C54.2158 58.3911 52.4244 58.2307 50.6549 57.9249C43.2407 56.6939 34.5022 53.2286 26.0546 48.167C17.607 43.1055 10.4246 37.0367 5.84163 31.0802C1.06503 24.8669 -0.356611 19.4342 1.83454 15.7692C4.0257 12.1043 9.49656 10.791 17.2218 12.0752C24.636 13.3062 33.3745 16.7715 41.8221 21.833C50.2697 26.8946 57.4541 32.9634 62.0371 38.9198C66.8137 45.1331 68.2354 50.5659 66.0442 54.2308C64.3928 56.9788 60.9074 58.4045 56.0114 58.4045ZM11.8874 13.6052C7.75488 13.6052 4.81728 14.7088 3.56018 16.8006C1.84257 19.668 3.25318 24.4255 7.43082 29.8572C11.8673 35.618 18.8431 41.5103 27.082 46.4454C35.3209 51.3805 43.8086 54.7555 50.98 55.9454C57.7411 57.0651 62.601 56.0658 64.3176 53.1995C66.0352 50.3331 64.6246 45.5746 60.4469 40.1438C56.0114 34.382 49.0357 28.4898 40.7968 23.5547C32.5579 18.6195 24.0701 15.2445 16.8987 14.0546C15.2433 13.7688 13.5673 13.6185 11.8874 13.6052Z" fill="white" stroke="white" stroke-width="1.3"/>
<path d="M11.8673 58.4044C6.96834 58.4044 3.48296 56.9798 1.83458 54.2308C-0.360591 50.5658 1.06005 45.1291 5.83664 38.9208C10.4196 32.9643 17.597 26.8955 26.0466 21.834C34.4962 16.7725 43.2327 13.3062 50.6469 12.0761C58.3722 10.7919 63.839 12.1052 66.0342 15.7712C68.2294 19.4372 66.8087 24.8729 62.0321 31.0812C57.4542 37.0366 50.2777 43.1055 41.8272 48.167C33.3766 53.2285 24.641 56.6948 17.2268 57.9248C15.4564 58.2308 13.6639 58.3912 11.8673 58.4044ZM55.9914 13.6051C54.3098 13.6179 52.6321 13.7682 50.975 14.0546C43.8036 15.2455 35.3169 18.6185 27.077 23.5546C18.8371 28.4907 11.8673 34.382 7.43185 40.1428C3.25421 45.5735 1.8426 50.332 3.56121 53.1994C5.27882 56.0688 10.1407 57.067 16.8988 55.9454C24.0702 54.7545 32.5569 51.3815 40.7968 46.4454C49.0367 41.5092 56.0115 35.618 60.4469 29.8572C64.6246 24.4265 66.0362 19.6679 64.3176 16.8016C63.0615 14.7037 60.1249 13.6051 55.9914 13.6051Z" fill="white" stroke="white" stroke-width="1.3"/>
<path d="M33.9394 42.0229C32.5504 42.0229 31.1926 41.611 30.0376 40.8393C28.8827 40.0676 27.9826 38.9708 27.451 37.6875C26.9195 36.4043 26.7804 34.9922 27.0514 33.6299C27.3224 32.2676 27.9912 31.0162 28.9734 30.034C29.9556 29.0518 31.207 28.383 32.5693 28.112C33.9316 27.841 35.3437 27.9801 36.6269 28.5116C37.9102 29.0432 39.007 29.9433 39.7787 31.0983C40.5504 32.2532 40.9623 33.611 40.9623 35C40.9602 36.8619 40.2196 38.647 38.903 39.9636C37.5864 41.2802 35.8013 42.0208 33.9394 42.0229ZM33.9394 29.9836C32.9472 29.9836 31.9774 30.2778 31.1524 30.829C30.3275 31.3802 29.6845 32.1637 29.3048 33.0803C28.9252 33.9969 28.8258 35.0055 29.0194 35.9786C29.2129 36.9517 29.6907 37.8455 30.3923 38.5471C31.0938 39.2487 31.9876 39.7264 32.9607 39.92C33.9338 40.1135 34.9424 40.0142 35.8591 39.6345C36.7757 39.2548 37.5591 38.6119 38.1103 37.7869C38.6615 36.962 38.9558 35.9921 38.9558 35C38.9542 33.67 38.4251 32.395 37.4847 31.4546C36.5443 30.5142 35.2693 29.9852 33.9394 29.9836Z" fill="white"/>
</svg>
