<svg width="75" height="70" viewBox="0 0 75 70" fill="none" xmlns="http://www.w3.org/2000/svg">
<path d="M68.866 1.07241H5.25162C2.84065 1.07241 0.879419 3.03365 0.879419 5.44461V47.6666C0.879419 50.0775 2.84065 52.0388 5.25162 52.0388H27.2681V60.1832H23.6885C22.4398 60.1832 21.4274 61.1955 21.4274 62.4443C21.4274 63.693 22.4398 64.7054 23.6885 64.7054H39.0924C39.498 67.0986 41.5778 68.9276 44.0771 68.9276H59.5959C62.385 68.9276 64.6531 66.6501 64.6531 63.8517V52.0388H68.866C71.277 52.0388 73.2382 50.0775 73.2382 47.6666V5.44461C73.2382 3.03365 71.277 1.07241 68.866 1.07241ZM68.716 5.59461V39.0722H64.6531V31.4815C64.6531 28.683 62.385 26.4056 59.5959 26.4056H44.0771C41.288 26.4056 39.0199 28.683 39.0199 31.4815V39.0722H5.40162V5.59461H68.716ZM60.1309 34.85H43.5421V31.4815C43.5421 31.1725 43.7861 30.9278 44.0771 30.9278H59.5959C59.887 30.9278 60.1309 31.1725 60.1309 31.4815V34.85ZM43.5421 39.3722H60.1309V55.961H43.5421V39.3722ZM5.40162 43.5944H39.0199V47.5166H5.40162V43.5944ZM31.7903 52.0388H39.0199V60.1832H31.7903V52.0388ZM59.5959 64.4054H44.0771C43.786 64.4054 43.5421 64.1607 43.5421 63.8517V60.4832H60.1309V63.8517C60.1309 64.1607 59.8869 64.4054 59.5959 64.4054ZM64.6531 47.5166V43.5944H68.716V47.5166H64.6531Z" fill="white" stroke="white" stroke-width="0.3"/>
</svg>
