<svg width="89" height="70" viewBox="0 0 89 70" fill="none" xmlns="http://www.w3.org/2000/svg">
<path d="M89 8.28692C85.6903 9.69231 82.1637 10.6238 78.4869 11.0762C82.2694 8.89 85.1563 5.45462 86.5136 1.31385C82.9869 3.34923 79.0932 4.78692 74.9436 5.58923C71.5949 2.13769 66.8223 0 61.6158 0C51.5143 0 43.3819 7.93692 43.3819 17.6669C43.3819 19.0669 43.5043 20.4131 43.8047 21.6946C28.6357 20.9785 15.2134 13.9408 6.19662 3.22C4.62244 5.86385 3.69906 8.89 3.69906 12.1477C3.69906 18.2646 6.95312 23.6869 11.8036 26.8262C8.87219 26.7723 5.99638 25.9485 3.56 24.6508C3.56 24.7046 3.56 24.7746 3.56 24.8446C3.56 33.4277 9.88456 40.5569 18.1782 42.1992C16.6931 42.5923 15.0744 42.7808 13.3945 42.7808C12.2264 42.7808 11.0471 42.7162 9.94019 42.4792C12.3042 49.4738 19.0126 54.6162 26.9893 54.7831C20.7815 59.4838 12.8994 62.3162 4.36656 62.3162C2.87025 62.3162 1.43512 62.2515 0 62.0738C8.08231 67.1192 17.6609 70 27.9905 70C61.5658 70 79.922 43.0769 79.922 19.74C79.922 18.9592 79.8942 18.2054 79.8552 17.4569C83.4764 14.9692 86.5191 11.8623 89 8.28692Z" fill="white"/>
</svg>
