<svg id="Icons" height="512" viewBox="0 0 74 74" width="512" xmlns="http://www.w3.org/2000/svg">
<path d="m37 71c-7.851 0-14-14.935-14-34s6.149-34 14-34 14 14.935 14 34-6.149 34-14 34zm0-66c-6.5 0-12 14.654-12 32s5.5 32 12 32 12-14.654 12-32-5.5-32-12-32z"/>
<path d="m59 60.328a32.785 32.785 0 0 1 -5.339-.478c-7.39-1.227-16.1-4.681-24.52-9.726s-15.579-11.094-20.147-17.031c-4.761-6.193-6.178-11.608-3.994-15.261s7.637-4.962 15.337-3.682c7.39 1.227 16.1 4.681 24.52 9.726s15.581 11.094 20.149 17.031c4.761 6.193 6.178 11.608 3.994 15.261-1.646 2.739-5.12 4.16-10 4.16zm-43.98-44.653c-4.119 0-7.047 1.1-8.3 3.185-1.712 2.858-.306 7.6 3.858 13.014 4.422 5.742 11.375 11.615 19.587 16.534s16.672 8.283 23.82 9.469c6.739 1.116 11.583.12 13.294-2.737 1.712-2.857.306-7.6-3.858-13.013-4.421-5.743-11.374-11.616-19.586-16.535s-16.672-8.283-23.82-9.469a30.8 30.8 0 0 0 -4.995-.448z"/>
<path d="m15 60.328c-4.883 0-8.357-1.42-10-4.16-2.188-3.653-.772-9.072 3.989-15.26 4.568-5.937 11.722-11.986 20.144-17.031s17.13-8.5 24.52-9.726c7.7-1.28 13.149.029 15.337 3.683s.772 9.072-3.989 15.26c-4.563 5.936-11.716 11.985-20.139 17.03s-17.13 8.5-24.52 9.726a32.785 32.785 0 0 1 -5.342.478zm43.98-44.653a30.736 30.736 0 0 0 -5 .448c-7.148 1.187-15.607 4.549-23.82 9.469s-15.16 10.792-19.581 16.534c-4.164 5.413-5.571 10.156-3.858 13.014 1.712 2.86 6.558 3.855 13.294 2.737 7.148-1.187 15.607-4.549 23.82-9.469s15.165-10.792 19.586-16.534c4.164-5.413 5.571-10.156 3.858-13.013-1.252-2.091-4.179-3.186-8.299-3.186z"/>
<path d="m37 44a7 7 0 1 1 7-7 7.008 7.008 0 0 1 -7 7zm0-12a5 5 0 1 0 5 5 5.006 5.006 0 0 0 -5-5z"/>
</svg>