<svg width="428" height="191" viewBox="0 0 428 191" fill="none" xmlns="http://www.w3.org/2000/svg">
<path fill-rule="evenodd" clip-rule="evenodd" d="M88.964 58.672C99.161 52.385 110.289 48.012 121.256 43.397C153.637 29.772 187.268 19.939 221.478 12.262C249.789 5.90898 278.463 1.79898 307.541 0.492981C329.703 -0.502019 351.682 0.203995 373.521 4.12199C377.652 4.86299 381.806 5.629 385.703 7.321C381.29 9.002 377.315 5.35299 372.964 6.27199C372.322 6.25299 371.68 6.23499 371.037 6.21599C362.911 2.99199 354.217 3.87699 345.813 3.15999C330.417 1.84699 315.006 3.89299 299.674 5.33199C294.096 5.85499 288.162 5.61198 282.889 8.33598C282.246 8.35398 281.605 8.372 280.963 8.39C279.142 8.288 277.1 7.62398 276.331 10.206C275.387 10.215 274.443 10.223 273.5 10.232C272.494 9.08498 271.37 9.55098 270.121 9.80498C260.182 11.826 250.104 13.302 240.312 15.871C233.263 17.721 225.838 18.521 219.279 22.086C218.642 22.121 218.006 22.155 217.37 22.19C215.94 21.959 215.167 22.658 214.833 23.98C214.246 23.994 213.659 24.007 213.072 24.021C211.513 22.563 211.054 23.805 210.591 25.033C209.32 25.151 208.048 25.268 206.777 25.386C205.796 25.196 204.952 25.351 204.436 26.323C203.093 26.713 201.75 27.103 200.408 27.493C197.256 28.364 193.652 28.19 191.487 31.347C189.161 31.831 186.835 32.315 184.508 32.799C181.087 33.057 177.644 33.263 175.6 36.682C173.625 37.158 171.649 37.633 169.674 38.109C168.243 37.873 167.48 38.585 167.133 39.892C165.758 40.179 164.22 39.886 163.085 41.028C161.876 41.178 160.54 41.042 159.476 41.518C150.388 45.585 141.335 49.735 132.309 53.939C130.916 54.588 129.518 55.479 129.341 57.314L129.364 57.174C128.42 57.144 127.469 57.1 127.153 58.301L127.29 58.27C126.619 58.679 124.273 56.649 125.351 59.603C124.191 60.135 123.031 60.666 121.872 61.198C118.077 60.684 115.075 61.789 113.298 65.396L113.154 65.528C111.461 65.658 109.311 64.969 109.117 67.783L109.178 67.713C106.274 67.343 104.471 69.07 102.809 71.063C101.363 73.152 98.9961 73.945 96.9711 75.227C80.6111 85.58 64.7831 96.679 53.508 112.782C40.542 131.298 43.2561 148.208 64.3461 158.957C80.9171 167.402 98.849 169.645 117.035 170.496C140.093 171.574 162.972 169.883 185.854 166.63C203.21 164.162 220.359 160.822 237.341 156.75C264.096 150.334 290.054 141.416 315.42 130.646C328.969 124.893 342.102 118.438 354.977 111.375C355.965 112.485 356.734 112.641 357.067 110.896L356.963 110.997C358.201 111.379 359.298 111.144 360.505 110.608C377.005 103.274 391.369 92.733 404.904 80.98C406.938 79.213 409.604 77.586 409.294 74.186C410.296 72.402 411.697 71.01 413.439 69.95C417.039 69.272 418.15 66.575 418.72 63.439C419.118 62.469 419.517 61.499 419.914 60.528C421.271 60.277 421.983 59.518 421.841 58.084C421.921 57.142 422.001 56.198 422.082 55.255C424.741 54.217 424.604 51.763 424.967 49.561C425.002 48.92 425.037 48.278 425.073 47.637C427.302 45.99 425.229 43.109 426.891 41.299C428.982 50.74 425.762 59.122 421.143 66.94C410.959 84.175 395.834 96.589 379.741 107.893C374.749 111.399 369.961 115.335 364.145 117.553C362.661 117.387 361.568 117.821 361.246 119.439L361.048 119.69C361.048 119.69 360.732 119.638 360.731 119.639C358.97 119.553 357.369 119.711 355.638 120.499C343.238 126.149 331.585 133.232 318.75 138.151C304.237 143.714 290.097 150.263 275.319 155.213C251.122 163.317 226.456 169.645 201.483 174.799C190.478 177.07 179.279 178.027 168.149 179.471C155.249 181.146 142.324 182.609 129.374 183.032C115.665 183.481 101.92 183.663 88.1631 182.314C69.7301 180.508 51.7131 177.791 34.8661 169.376C15.3941 159.65 7.72705 142.773 15.003 123.76C18.4 114.882 24.4071 107.624 30.9571 100.961C46.7771 84.869 65.771 73.118 85.279 62.128C86.787 61.278 88.639 60.785 88.964 58.672Z" fill="#E61530"/>
<path fill-rule="evenodd" clip-rule="evenodd" d="M88.964 58.672C88.638 60.785 86.786 61.278 85.279 62.127C65.772 73.116 46.778 84.867 30.957 100.96C24.407 107.623 18.4 114.881 15.003 123.759C7.72698 142.773 15.394 159.65 34.866 169.375C51.713 177.79 69.73 180.508 88.163 182.313C101.92 183.662 115.665 183.48 129.374 183.031C142.324 182.608 155.249 181.145 168.149 179.47C179.279 178.026 190.478 177.07 201.483 174.798C226.456 169.644 251.122 163.317 275.319 155.212C290.096 150.263 304.237 143.713 318.75 138.15C331.585 133.231 343.237 126.148 355.638 120.498C357.368 119.71 358.97 119.552 360.731 119.638C347.232 128.569 332.588 135.34 317.877 141.908C284.544 156.789 249.879 167.741 214.411 176.223C211.519 176.915 208.535 177.221 205.593 177.706C204.752 176.853 203.7 176.828 202.631 177.007C193.988 178.453 185.346 179.902 176.707 181.372C160.072 184.205 143.281 185.751 126.452 186.322C105.68 187.027 85.028 185.845 64.396 182.48C49.411 180.035 35.239 175.869 23.137 167.03C7.87798 155.885 3.80098 137.858 12.409 120.722C14.563 116.434 18.479 112.99 18.939 107.858C18.939 107.858 18.878 107.937 18.878 107.936C20.451 107.952 21.147 107.178 20.968 105.617L20.867 105.714C22.607 105.869 23.221 104.934 23.163 103.347C32.329 93.21 43.427 85.408 54.723 77.982C65.673 70.783 76.872 63.903 88.964 58.672Z" fill="#E61530"/>
<path fill-rule="evenodd" clip-rule="evenodd" d="M371.038 6.216C371.681 6.235 372.323 6.25299 372.967 6.27099C373.212 8.12699 374.611 8.10999 376.051 8.41299C385.953 10.493 395.82 12.635 405.117 16.915C408.712 18.57 411.244 22.429 415.777 22.093C416.041 22.346 416.303 22.6 416.567 22.855C417.004 23.31 417.439 23.764 417.875 24.217C418.876 24.489 419.46 25.161 419.727 26.141C419.874 27.153 419.686 28.415 420.224 29.133C423.537 33.548 424.286 38.538 423.985 43.847C423.908 45.201 423.738 46.655 425.075 47.635C425.039 48.276 425.004 48.918 424.969 49.561C422.107 50.496 422.319 52.988 422.084 55.253C422.003 56.196 421.923 57.139 421.843 58.083C420.337 58.216 419.631 58.98 419.916 60.525C419.519 61.495 419.12 62.466 418.721 63.437C415.728 64.607 414.138 66.915 413.441 69.947C411.7 71.007 410.298 72.4 409.295 74.182C405.774 74.255 404.484 77.418 402.374 79.349C399.902 81.611 397.695 84.111 394.077 84.421C400.386 77.212 407.266 70.606 411.549 61.65C418.024 48.108 414.325 33.821 402.115 25.862C393.432 20.202 384.011 17.098 374.194 14.629C373.267 13.439 372.004 13.567 370.728 13.745C327.999 6.89499 285.859 11.601 243.917 20.205C242.062 20.241 240.117 19.64 238.442 20.968C237.413 21.168 236.372 21.32 235.356 21.575C211.001 27.693 186.912 34.705 163.208 43.012C163.167 42.35 163.127 41.688 163.086 41.026C164.222 39.885 165.76 40.178 167.137 39.894C168.642 40.232 169.446 39.578 169.676 38.108C171.651 37.632 173.627 37.157 175.605 36.684C178.836 35.988 182.474 36.228 184.51 32.799C186.836 32.315 189.162 31.831 191.491 31.35C194.732 30.682 198.371 30.937 200.409 27.493C201.752 27.103 203.095 26.712 204.438 26.323C206.004 27.972 206.429 26.773 206.778 25.386C208.049 25.269 209.32 25.151 210.594 25.036C211.677 25.322 212.573 25.152 213.073 24.022C213.66 24.008 214.247 23.995 214.837 23.983C216.368 24.354 217.155 23.676 217.371 22.191C218.007 22.156 218.643 22.122 219.281 22.087C220.389 23.637 221.677 22.815 223.039 22.488C233.696 19.938 244.39 17.536 255.032 14.926C261.2 13.414 267.879 13.883 273.501 10.232C274.444 10.223 275.388 10.215 276.334 10.208C278.175 10.357 280.313 11.263 280.964 8.39001C281.606 8.37201 282.247 8.35398 282.891 8.33498C285.885 11.095 288.939 8.435 291.887 8.242C302.853 7.521 313.769 5.95999 324.739 5.42699C333.639 4.99399 342.566 5.011 351.529 5.713C357.96 6.217 364.498 8.279 371.038 6.216Z" fill="#E61530"/>
<path fill-rule="evenodd" clip-rule="evenodd" d="M18.938 107.858C18.479 112.99 14.562 116.434 12.408 120.722C3.80002 137.858 7.87702 155.885 23.136 167.03C35.238 175.869 49.41 180.035 64.395 182.48C85.027 185.845 105.678 187.027 126.451 186.322C143.28 185.751 160.071 184.205 176.706 181.372C185.345 179.901 193.988 178.453 202.63 177.007C203.699 176.828 204.751 176.854 205.592 177.706C182.504 183.58 158.988 186.778 135.289 188.688C109.155 190.793 83.03 191.084 57.106 186.382C41.794 183.604 26.781 179.716 14.23 169.805C0.884043 159.267 -2.80297 145.899 3.56803 130.322C7.05002 121.812 12.022 114.118 18.938 107.858Z" fill="#E61530"/>
<path fill-rule="evenodd" clip-rule="evenodd" d="M415.777 22.0929C411.244 22.4279 408.712 18.5699 405.117 16.9149C395.819 12.6349 385.953 10.4929 376.051 8.41293C374.611 8.11093 373.212 8.12693 372.967 6.27093C377.317 5.35293 381.291 9.00195 385.704 7.32095C396.769 10.1249 407.213 14.1949 415.777 22.0929Z" fill="#E61530"/>
<path fill-rule="evenodd" clip-rule="evenodd" d="M425.074 47.635C423.737 46.655 423.907 45.2 423.984 43.847C424.285 38.537 423.536 33.547 420.223 29.133C419.685 28.415 419.873 27.153 419.726 26.141C424.101 30.252 426.032 35.521 426.891 41.296C425.23 43.107 427.304 45.988 425.074 47.635Z" fill="#E61530"/>
<path fill-rule="evenodd" clip-rule="evenodd" d="M20.9669 105.617C21.1459 107.179 20.449 107.952 18.877 107.936C19.157 106.788 19.8749 106.033 20.9669 105.617Z" fill="#E61530"/>
<path fill-rule="evenodd" clip-rule="evenodd" d="M23.1629 103.347C23.2209 104.933 22.6069 105.869 20.8669 105.714C21.2399 104.545 22.0679 103.817 23.1629 103.347Z" fill="#E61530"/>
<path fill-rule="evenodd" clip-rule="evenodd" d="M361.247 119.438C361.569 117.82 362.662 117.386 364.146 117.552C363.465 118.618 362.489 119.234 361.247 119.438Z" fill="#E61530"/>
<path fill-rule="evenodd" clip-rule="evenodd" d="M417.875 24.217C417.439 23.763 417.004 23.31 416.567 22.855C417.003 23.309 417.439 23.763 417.875 24.217Z" fill="#E61530"/>
<path fill-rule="evenodd" clip-rule="evenodd" d="M356.964 110.994C364.608 104.889 373.562 100.696 381.073 94.379C384.234 91.72 387.705 89.429 391.037 86.97C391.241 87.076 391.445 87.183 391.648 87.29C391.518 87.086 391.389 86.882 391.259 86.678C391.884 86.103 392.509 85.529 393.135 84.953C393.883 85.564 394.156 85.279 394.125 84.427C394.125 84.427 394.076 84.421 394.075 84.422C397.693 84.112 399.9 81.612 402.372 79.35C404.482 77.419 405.771 74.256 409.293 74.183C409.605 77.584 406.939 79.212 404.904 80.978C391.369 92.731 377.005 103.272 360.505 110.606C359.299 111.142 358.202 111.376 356.964 110.994Z" fill="#E61530"/>
<path fill-rule="evenodd" clip-rule="evenodd" d="M371.038 6.21607C364.498 8.27907 357.96 6.21706 351.529 5.71406C342.566 5.01306 333.639 4.99508 324.739 5.42808C313.769 5.96108 302.853 7.52208 291.887 8.24308C288.939 8.43608 285.885 11.0971 282.891 8.33607C288.163 5.61207 294.097 5.85607 299.675 5.33207C315.007 3.89307 330.417 1.84707 345.814 3.16007C354.218 3.87707 362.912 2.99207 371.038 6.21607Z" fill="#E61530"/>
<path fill-rule="evenodd" clip-rule="evenodd" d="M273.502 10.232C267.88 13.883 261.201 13.414 255.033 14.926C244.39 17.536 233.697 19.938 223.04 22.488C221.679 22.814 220.391 23.636 219.282 22.087C225.841 18.521 233.265 17.721 240.314 15.871C250.106 13.302 260.183 11.826 270.123 9.80501C271.372 9.55201 272.496 9.08502 273.502 10.232Z" fill="#E61530"/>
<path fill-rule="evenodd" clip-rule="evenodd" d="M163.208 43.0121C151.919 47.7791 140.631 52.545 129.343 57.313C129.521 55.479 130.918 54.5881 132.311 53.9391C141.337 49.7341 150.389 45.5851 159.478 41.5181C160.541 41.0421 161.878 41.1781 163.087 41.0281C163.127 41.6881 163.167 42.3501 163.208 43.0121Z" fill="#E61530"/>
<path fill-rule="evenodd" clip-rule="evenodd" d="M184.51 32.798C182.473 36.227 178.836 35.987 175.605 36.683C177.646 33.263 181.089 33.057 184.51 32.798Z" fill="#E61530"/>
<path fill-rule="evenodd" clip-rule="evenodd" d="M200.409 27.4919C198.371 30.9359 194.731 30.6799 191.491 31.3489C193.653 28.1889 197.257 28.3629 200.409 27.4919Z" fill="#E61530"/>
<path fill-rule="evenodd" clip-rule="evenodd" d="M413.439 69.947C414.136 66.915 415.726 64.607 418.719 63.437C418.15 66.573 417.039 69.269 413.439 69.947Z" fill="#E61530"/>
<path fill-rule="evenodd" clip-rule="evenodd" d="M121.873 61.1969C119.015 62.5959 116.157 63.9949 113.299 65.3949C115.076 61.7879 118.078 60.6829 121.873 61.1969Z" fill="#E61530"/>
<path fill-rule="evenodd" clip-rule="evenodd" d="M422.083 55.253C422.317 52.987 422.105 50.495 424.968 49.561C424.605 51.761 424.742 54.215 422.083 55.253Z" fill="#E61530"/>
<path fill-rule="evenodd" clip-rule="evenodd" d="M280.965 8.39104C280.314 11.264 278.176 10.3581 276.335 10.2091C277.102 7.62506 279.144 8.28904 280.965 8.39104Z" fill="#E61530"/>
<path fill-rule="evenodd" clip-rule="evenodd" d="M109.179 67.712C107.179 69.063 105.37 70.776 102.81 71.062C104.473 69.069 106.275 67.342 109.179 67.712Z" fill="#E61530"/>
<path fill-rule="evenodd" clip-rule="evenodd" d="M113.156 65.526C112.247 67.059 110.309 66.751 109.119 67.781C109.313 64.968 111.463 65.657 113.156 65.526Z" fill="#E61530"/>
<path fill-rule="evenodd" clip-rule="evenodd" d="M206.779 25.385C206.429 26.771 206.005 27.97 204.439 26.322C204.954 25.35 205.798 25.195 206.779 25.385Z" fill="#E61530"/>
<path fill-rule="evenodd" clip-rule="evenodd" d="M419.915 60.526C419.63 58.981 420.336 58.216 421.842 58.084C421.984 59.516 421.272 60.275 419.915 60.526Z" fill="#E61530"/>
<path fill-rule="evenodd" clip-rule="evenodd" d="M169.676 38.108C169.446 39.577 168.642 40.232 167.137 39.894C167.481 38.584 168.245 37.872 169.676 38.108Z" fill="#E61530"/>
<path fill-rule="evenodd" clip-rule="evenodd" d="M213.074 24.0209C212.574 25.1509 211.678 25.321 210.595 25.035C211.057 23.805 211.515 22.5629 213.074 24.0209Z" fill="#E61530"/>
<path fill-rule="evenodd" clip-rule="evenodd" d="M217.372 22.191C217.156 23.676 216.369 24.354 214.838 23.983C215.169 22.659 215.942 21.959 217.372 22.191Z" fill="#E61530"/>
<path fill-rule="evenodd" clip-rule="evenodd" d="M127.291 58.269C127.047 59.298 126.219 59.476 125.353 59.601C124.274 56.648 126.62 58.678 127.291 58.269Z" fill="#E61530"/>
<path fill-rule="evenodd" clip-rule="evenodd" d="M354.979 111.373C355.674 111.214 356.372 111.055 357.068 110.894C356.735 112.639 355.967 112.483 354.979 111.373Z" fill="#E61530"/>
<path fill-rule="evenodd" clip-rule="evenodd" d="M129.366 57.1729C128.921 58.1199 128.021 58.1769 127.156 58.2999C127.471 57.0989 128.422 57.1429 129.366 57.1729Z" fill="#E61530"/>
<path fill-rule="evenodd" clip-rule="evenodd" d="M243.917 20.205C241 20.5 240.5 20.5 238.441 20.968C240.117 19.64 242.062 20.241 243.917 20.205Z" fill="#E61530"/>
<path fill-rule="evenodd" clip-rule="evenodd" d="M374.193 14.629C373 14 372.5 14 370.727 13.745C372.003 13.567 373.267 13.438 374.193 14.629Z" fill="#E61530"/>
<path fill-rule="evenodd" clip-rule="evenodd" d="M197.168 67.774C199.603 67.058 199.653 69.831 201.569 70.694C201.36 68.772 201.174 67.07 201.012 65.574C202.713 64.014 203.159 66.421 204.499 66.132C204.788 65.632 205.166 65.047 205.479 64.429C206.483 62.448 207.837 60.658 210.256 61.048C212.917 61.477 213.607 63.664 213.997 66.131C215.069 72.904 216.347 79.645 217.716 87.378C220.492 82.138 220.956 77.118 222.351 72.422C223.351 69.058 223.89 65.559 224.756 62.15C225.993 57.275 225.837 51.632 232.094 49.247C234.465 49.867 235.793 52.073 236.622 54.185C243.87 55.462 247.605 49.534 252.851 46.81C260.792 42.686 268.943 39.635 278.046 40.088C284.196 40.395 287.046 42.034 289.864 46.69C296.163 40.162 303.112 34.318 310.854 29.83C316.617 26.491 323.081 24.316 328.474 20.2C329.26 20.152 330.047 20.104 330.833 20.056C330.098 22.403 333.417 24.993 330.222 27.318C329.08 28.148 330.739 29.613 331.209 29.816C336.6 32.144 333.166 34.365 330.979 35.993C327.166 38.829 323.186 41.516 319.003 43.758C314.153 46.357 313.206 49.762 316.028 55.242C320.551 49.826 327.685 49.385 332.44 45.373C333.717 45.28 333.601 45.96 333.781 46.405C336.843 53.973 334.352 58.603 327.238 62.782C317.882 68.278 318.259 68.928 321.085 79.744C321.653 81.919 322.253 84.086 322.992 86.827C329.489 82.597 333.978 75.75 341.304 73.921C341.677 74.487 342.05 75.053 342.424 75.62C341.312 77.06 340.2 78.501 338.94 80.137C340.926 81.214 341.591 78.616 343.069 79.084C343.463 80.703 343.855 82.317 344.335 84.293C332.916 90.596 324.442 100.31 314.802 109.606C313.439 100.471 309.993 92.418 306.577 84.343C305.753 82.393 305.329 80.453 303.473 81.815C297.741 76.39 301.647 68.816 298.212 62.657C298.566 72.735 296.815 82.33 292.577 91.468C286.498 104.577 276.776 114.193 264.544 121.552C263.099 122.422 261.816 121.996 260.487 121.89C249.096 120.977 237.745 119.703 225.833 117.549C226.619 120.248 227.343 122.331 227.809 124.471C228.145 126.01 230.239 127.718 227.995 129.164C225.876 130.529 224.559 128.327 222.961 127.494C222.418 127.211 222.825 125.958 221.377 126.278C221.84 129.357 224.693 133.705 217.986 133.827C210.223 115.489 203.069 96.761 196.87 77.717C192.745 78.476 192.529 80.57 193.357 84.192C197.199 101.014 200.645 117.926 204.261 134.8C204.763 137.145 204.629 139.098 201.807 139.682C190.668 141.986 179.524 142.731 167.993 139.837C169.715 136.108 165.275 128.255 175.418 131.358C174.069 128.183 169.245 129.439 169.689 125.011C175.671 125.202 181.686 126.714 188.029 125.698C185.155 113.923 180.912 102.766 176.529 91.404C172.093 94.064 168.933 97.907 165.271 101.162C163.584 102.661 163.891 104.58 163.771 106.527C162.299 130.381 151.259 148.322 130.436 160.169C129.678 160.601 128.976 161.19 127.884 160.639C125.736 156.671 132.281 156.976 131.491 153.668C132.401 153.342 132.385 152.732 132.001 152.009C131.571 152.276 131.141 152.543 130.711 152.811C126.961 153.199 128.243 149.043 125.776 148.332C127.129 146.344 128.978 145.427 127.943 142.945C123.898 133.244 120.102 123.438 116.189 113.61C113.476 113.839 113.303 117.431 110.272 118.046C109.574 113.058 108.405 108.23 108.67 103.2C108.916 102.754 109.708 102.315 108.802 101.843C108.626 101.751 108.151 102.231 107.814 102.447C106.995 102.637 106.013 104.475 105.42 102.644C104.941 101.161 104.657 99.724 103.305 98.811C116.766 80.663 142.864 74.381 157.521 85.679C167.021 78.088 176.411 70.353 186.063 62.96C193.059 57.602 194.354 58.253 196.638 67.093C195.806 67.566 194.751 67.872 195.061 69.26C196.184 69.343 196.819 68.769 197.168 67.774ZM245.384 78.892C241.685 75.138 248.141 73.427 246.907 69.286C237.638 77.835 237.583 90.329 230.885 99.64C240.539 103.234 249.508 105.695 258.723 107.257C261.356 107.703 263.714 107.66 262.266 103.941C258.407 94.028 254.43 84.162 250.482 74.234C247.959 75.081 247.315 77.685 245.384 78.892ZM274.372 96.183C280.077 89.051 282.909 81.762 282.474 73.612C281.942 63.668 275.783 59.882 266.553 63.393C268.367 74.101 270.919 84.656 274.372 96.183ZM140.15 135.594C145.588 128.024 148.541 120.971 148.125 112.91C147.629 103.283 141.964 99.49 132.272 102.489C134.461 113.208 136.535 123.998 140.15 135.594ZM266.362 110.062C264.163 112.879 261.164 113.791 257.933 114.269C262.671 117.005 265.084 114.589 266.362 110.062ZM191.202 65.523C187.557 65.241 186.678 67.077 185.656 69.908C188.111 68.741 189.696 67.757 191.202 65.523ZM300.043 48.545C297.043 48.753 295.945 49.825 295.731 52.432C297.862 51.78 299.012 50.81 300.043 48.545ZM180.154 129.401C180.85 131.076 181.979 131.393 183.549 130.823C182.857 129.307 181.772 128.886 180.154 129.401ZM115.636 99.912C113.832 100.889 112.552 101.457 112.647 103.271C114.467 103.294 114.934 102.04 115.636 99.912ZM164.906 94.667C163.809 95.181 162.142 95.37 162.815 97.324C164.459 97.202 164.734 95.98 164.906 94.667ZM206.223 76.61C206.942 74.949 206.312 74.008 204.909 72.731C204.48 74.85 205.186 75.755 206.223 76.61ZM236.888 63.497C234.618 64.232 235.134 65.717 235.684 67.395C236.334 66.095 237.415 65.112 236.888 63.497ZM250.706 111.784C252.084 112.141 253.008 112.574 253.902 111.742C253.106 110.345 252.169 110.493 250.706 111.784ZM246.268 64.802C246.942 64.03 248.005 63.869 247.508 62.258C246.53 62.723 245.65 63.027 246.268 64.802ZM335.018 84.89C333.945 85.653 332.761 85.863 333.373 87.253C334.075 86.802 334.97 86.591 335.018 84.89ZM134.997 147.097C133.872 147.275 133.282 147.76 133.674 149.068C134.568 148.56 135.231 148.119 134.997 147.097ZM269.413 111.076C270.851 111.537 271.202 110.882 271.002 109.547C270.041 109.653 269.499 110.106 269.413 111.076ZM162.352 92.702C163.939 93.603 164.298 92.703 164.377 91.36C163.328 91.212 162.833 91.903 162.352 92.702ZM249.501 59.152C249.789 58.762 250.043 58.417 250.298 58.071C250.078 57.968 249.797 57.727 249.653 57.792C249.395 57.908 249.151 58.18 249.041 58.445C248.991 58.564 249.276 58.824 249.501 59.152ZM288.957 52.359C288.692 52.267 288.428 52.175 288.163 52.084C288.159 52.292 288.108 52.516 288.17 52.702C288.208 52.82 288.516 52.973 288.531 52.955C288.693 52.775 288.82 52.564 288.957 52.359ZM172.202 134.071C172.938 134.63 173.598 134.645 174.214 133.894C173.484 133.426 172.807 133.228 172.202 134.071ZM139.32 147.307C139.563 147.146 139.808 146.995 140.032 146.819C140.058 146.798 139.971 146.632 139.936 146.535C139.676 146.638 139.411 146.728 139.166 146.859C139.145 146.87 139.262 147.139 139.32 147.307Z" fill="#E61530"/>
</svg>
