<svg width="70" height="70" viewBox="0 0 70 70" fill="none" xmlns="http://www.w3.org/2000/svg">
<path d="M69.7978 40.1518V29.8481L61.2329 28.1209C60.607 25.736 59.657 23.4483 58.4094 21.3216L63.2457 14.0372L55.9628 6.74965L48.6784 11.586C46.5517 10.3384 44.264 9.38834 41.8791 8.76249L40.1518 0.197571H29.8481L28.1209 8.76249C25.736 9.38834 23.4483 10.3384 21.3216 11.586L14.0372 6.74965L6.74965 14.0372L11.586 21.3216C10.3384 23.4483 9.38834 25.736 8.76249 28.1209L0.197571 29.8481V40.1518L8.76249 41.8791C9.38834 44.264 10.3384 46.5517 11.586 48.6784L6.74965 55.9628L14.0356 63.2488L21.3201 58.4125C23.4467 59.6601 25.7345 60.6101 28.1193 61.236L29.8466 69.8009H40.1518L41.8791 61.236C44.264 60.6101 46.5517 59.6601 48.6784 58.4125L55.9628 63.2488L63.2488 55.9628L58.4124 48.6784C59.6601 46.5517 60.6101 44.264 61.2359 41.8791L69.7978 40.1518ZM35 46.5419C32.7172 46.5419 30.4857 45.865 28.5876 44.5968C26.6896 43.3285 25.2102 41.5259 24.3366 39.4169C23.463 37.3079 23.2345 34.9872 23.6798 32.7483C24.1252 30.5093 25.2244 28.4528 26.8386 26.8386C28.4528 25.2244 30.5093 24.1252 32.7483 23.6798C34.9872 23.2345 37.3079 23.463 39.4169 24.3366C41.5259 25.2102 43.3285 26.6896 44.5968 28.5876C45.865 30.4857 46.5419 32.7172 46.5419 35C46.542 36.5157 46.2436 38.0166 45.6636 39.417C45.0836 40.8174 44.2334 42.0898 43.1616 43.1616C42.0898 44.2334 40.8174 45.0836 39.417 45.6636C38.0166 46.2436 36.5157 46.542 35 46.5419Z" fill="white"/>
</svg>
