<svg width="70" height="70" viewBox="0 0 70 70" fill="none" xmlns="http://www.w3.org/2000/svg">
<g clip-path="url(#clip0)">
<path d="M65.4348 -0.5H4.56522C1.77241 -0.5 -0.5 1.77241 -0.5 4.56522V65.4348C-0.5 68.2276 1.77241 70.5 4.56522 70.5H65.4348C68.2276 70.5 70.5 68.2276 70.5 65.4348V4.56522C70.5 1.77241 68.2276 -0.5 65.4348 -0.5ZM66.4565 65.4348C66.4565 65.998 65.9971 66.4565 65.4348 66.4565H4.56522C4.0029 66.4565 3.54348 65.998 3.54348 65.4348V4.56522C3.54348 4.00321 4.00321 3.54348 4.56522 3.54348H65.4348C65.9968 3.54348 66.4565 4.00321 66.4565 4.56522V65.4348Z" fill="white" stroke="white"/>
<path d="M41.087 11.174H19.7826C18.3907 11.174 17.2609 12.3038 17.2609 13.6957V56.3044C17.2609 57.6995 18.3916 58.8261 19.7826 58.8261H41.087C47.513 58.8261 52.7391 53.5984 52.7391 47.174V44.1305C52.7391 40.4334 51.0091 37.1348 48.3199 35C51.0091 32.8653 52.7391 29.5667 52.7391 25.8696V22.8261C52.7391 16.4001 47.5129 11.174 41.087 11.174ZM47.6956 44.1305V47.174C47.6956 50.8169 44.7299 53.7826 41.087 53.7826H22.3043V37.5218H41.087C44.7299 37.5218 47.6956 40.4876 47.6956 44.1305ZM47.6956 25.8696C47.6956 29.5125 44.7299 32.4783 41.087 32.4783H22.3043V16.2174H41.087C44.7299 16.2174 47.6956 19.1832 47.6956 22.8261V25.8696Z" fill="white" stroke="white" stroke-width="2"/>
</g>
<defs>
<clipPath id="clip0">
<rect width="70" height="70" fill="white"/>
</clipPath>
</defs>
</svg>
