<svg width="70" height="70" viewBox="0 0 70 70" fill="none" xmlns="http://www.w3.org/2000/svg">
<path d="M42 38.1818H47.25V47.1545L55.79 51.6409L53.165 55.7773L42 49.9227V38.1818ZM56 22.2727H7V57.2727H23.345C21.84 54.3773 21 51.1318 21 47.7273C21 41.8202 23.5812 36.155 28.1759 31.9781C32.7705 27.8011 39.0022 25.4545 45.5 25.4545C49.245 25.4545 52.815 26.2182 56 27.5864V22.2727ZM7 63.6364C5.14348 63.6364 3.36301 62.9659 2.05025 61.7725C0.737498 60.5791 0 58.9605 0 57.2727V12.7273C0 9.19545 3.115 6.36364 7 6.36364H10.5V0H17.5V6.36364H45.5V0H52.5V6.36364H56C57.8565 6.36364 59.637 7.03409 60.9497 8.2275C62.2625 9.42092 63 11.0395 63 12.7273V32.1364C67.34 36.1455 70 41.65 70 47.7273C70 53.6344 67.4188 59.2995 62.8241 63.4765C58.2295 67.6534 51.9978 70 45.5 70C38.815 70 32.76 67.5818 28.35 63.6364H7ZM45.5 32.2955C40.998 32.2955 36.6803 33.9213 33.4969 36.8153C30.3134 39.7094 28.525 43.6345 28.525 47.7273C28.525 56.2545 36.12 63.1591 45.5 63.1591C47.7292 63.1591 49.9365 62.7599 51.996 61.9844C54.0556 61.2089 55.9269 60.0722 57.5031 58.6392C59.0794 57.2062 60.3298 55.505 61.1829 53.6328C62.0359 51.7605 62.475 49.7538 62.475 47.7273C62.475 39.2 54.88 32.2955 45.5 32.2955Z" fill="white"/>
</svg>
