<svg width="46" height="70" viewBox="0 0 46 70" fill="none" xmlns="http://www.w3.org/2000/svg">
<g clip-path="url(#clip0)">
<path d="M0 13.5112L4.12319 64.3511L22.6371 70L41.1446 64.3547L45.2743 13.5112H0ZM36.4587 30.1366L35.9381 36.5234L34.3696 55.6731L22.6371 59.2107L22.6307 59.2142L10.9079 55.6695L10.0865 45.6569H15.8298L16.2567 50.8539L22.6307 52.7321L22.6371 52.725L29.0176 50.8468L29.8875 42.1934L9.81158 42.2534L9.24242 36.3327L30.3693 36.0644L30.7962 29.727L8.67649 29.7941L8.3046 23.9052H22.6371H36.9697L36.4587 30.1366Z" fill="white"/>
<path d="M13.8308 11C12.7244 11 11.7277 10.7696 10.8406 10.3087C9.95355 9.83789 9.25585 9.1867 8.74753 8.35519C8.24918 7.51366 8 6.56193 8 5.5C8 4.43807 8.24918 3.49135 8.74753 2.65984C9.25585 1.81831 9.95355 1.16712 10.8406 0.706284C11.7277 0.235428 12.7244 0 13.8308 0C14.8474 0 15.7544 0.180328 16.5518 0.540984C17.3491 0.901639 18.007 1.42259 18.5253 2.10383L16.2976 4.10246C15.6497 3.28097 14.8873 2.87022 14.0102 2.87022C13.2726 2.87022 12.6796 3.11066 12.231 3.59153C11.7825 4.06239 11.5583 4.69854 11.5583 5.5C11.5583 6.30146 11.7825 6.94262 12.231 7.4235C12.6796 7.89435 13.2726 8.12978 14.0102 8.12978C14.8873 8.12978 15.6497 7.71903 16.2976 6.89754L18.5253 8.89617C18.007 9.57741 17.3491 10.0984 16.5518 10.459C15.7544 10.8197 14.8474 11 13.8308 11Z" fill="white"/>
<path d="M23.3001 11C22.433 11 21.5858 10.9048 20.7585 10.7145C19.9412 10.5141 19.2684 10.2486 18.7402 9.91803L19.8764 7.33333C20.3748 7.62386 20.9329 7.85929 21.5509 8.03962C22.1689 8.20993 22.7619 8.29508 23.33 8.29508C23.8184 8.29508 24.1673 8.25 24.3766 8.15984C24.5859 8.05965 24.6905 7.91439 24.6905 7.72404C24.6905 7.50364 24.551 7.33834 24.2719 7.22814C24.0028 7.11794 23.5543 6.99772 22.9264 6.86749C22.119 6.69718 21.4462 6.51685 20.908 6.3265C20.3698 6.12614 19.9013 5.80555 19.5027 5.36475C19.104 4.91393 18.9046 4.30783 18.9046 3.54645C18.9046 2.88525 19.089 2.28415 19.4578 1.74317C19.8266 1.20219 20.3748 0.776411 21.1024 0.465847C21.8399 0.155282 22.732 0 23.7785 0C24.4962 0 25.1989 0.0801457 25.8866 0.240437C26.5843 0.39071 27.1973 0.61612 27.7255 0.916667L26.664 3.48634C25.6374 2.96539 24.6656 2.70492 23.7486 2.70492C22.8416 2.70492 22.3881 2.92532 22.3881 3.36612C22.3881 3.5765 22.5227 3.73679 22.7918 3.84699C23.0609 3.94718 23.5044 4.05738 24.1224 4.1776C24.9198 4.32787 25.5926 4.50319 26.1407 4.70355C26.6889 4.8939 27.1624 5.20947 27.5611 5.65027C27.9697 6.09107 28.174 6.69217 28.174 7.45355C28.174 8.11475 27.9896 8.71585 27.6209 9.25683C27.2521 9.7878 26.6989 10.2136 25.9613 10.5342C25.2337 10.8447 24.3467 11 23.3001 11Z" fill="white"/>
<path d="M33.1261 11C32.2589 11 31.4117 10.9048 30.5845 10.7145C29.7672 10.5141 29.0944 10.2486 28.5661 9.91803L29.7024 7.33333C30.2007 7.62386 30.7589 7.85929 31.3769 8.03962C31.9948 8.20993 32.5879 8.29508 33.156 8.29508C33.6444 8.29508 33.9932 8.25 34.2025 8.15984C34.4118 8.05965 34.5165 7.91439 34.5165 7.72404C34.5165 7.50364 34.377 7.33834 34.0979 7.22814C33.8288 7.11794 33.3802 6.99772 32.7523 6.86749C31.945 6.69718 31.2722 6.51685 30.734 6.3265C30.1958 6.12614 29.7273 5.80555 29.3286 5.36475C28.9299 4.91393 28.7306 4.30783 28.7306 3.54645C28.7306 2.88525 28.915 2.28415 29.2838 1.74317C29.6526 1.20219 30.2007 0.776411 30.9283 0.465847C31.6659 0.155282 32.558 0 33.6045 0C34.3221 0 35.0248 0.0801457 35.7126 0.240437C36.4102 0.39071 37.0232 0.61612 37.5515 0.916667L36.49 3.48634C35.4634 2.96539 34.4916 2.70492 33.5746 2.70492C32.6676 2.70492 32.2141 2.92532 32.2141 3.36612C32.2141 3.5765 32.3487 3.73679 32.6178 3.84699C32.8869 3.94718 33.3304 4.05738 33.9484 4.1776C34.7457 4.32787 35.4185 4.50319 35.9667 4.70355C36.5149 4.8939 36.9883 5.20947 37.387 5.65027C37.7957 6.09107 38 6.69217 38 7.45355C38 8.11475 37.8156 8.71585 37.4468 9.25683C37.078 9.7878 36.5249 10.2136 35.7873 10.5342C35.0597 10.8447 34.1726 11 33.1261 11Z" fill="white"/>
</g>
<defs>
<clipPath id="clip0">
<rect width="45.6061" height="70" fill="white"/>
</clipPath>
</defs>
</svg>
