<svg width="47" height="70" viewBox="0 0 47 70" fill="none" xmlns="http://www.w3.org/2000/svg">
<g clip-path="url(#clip0)">
<path d="M11.6714 69.9999C18.1114 69.9999 23.338 64.7732 23.338 58.3333V46.6666H11.6714C5.23135 46.6666 0.00468445 51.8933 0.00468445 58.3333C0.00468445 64.7732 5.23135 69.9999 11.6714 69.9999Z" fill="white"/>
<path d="M0.00468445 35C0.00468445 28.56 5.23135 23.3334 11.6714 23.3334H23.338V46.6666H11.6714C5.23135 46.6666 0.00468445 41.44 0.00468445 35Z" fill="white"/>
<path d="M0.00468445 11.6667C0.00468445 5.22667 5.23135 0 11.6714 0H23.338V23.3333H11.6714C5.23135 23.3333 0.00468445 18.1067 0.00468445 11.6667Z" fill="white"/>
<path d="M23.338 0H35.0047C41.4447 0 46.6714 5.22667 46.6714 11.6667C46.6714 18.1067 41.4447 23.3333 35.0047 23.3333H23.338V0Z" fill="white"/>
<path d="M46.6714 35C46.6714 41.44 41.4447 46.6666 35.0047 46.6666C28.5647 46.6666 23.338 41.44 23.338 35C23.338 28.56 28.5647 23.3334 35.0047 23.3334C41.4447 23.3334 46.6714 28.56 46.6714 35Z" fill="white"/>
</g>
<defs>
<clipPath id="clip0">
<rect width="46.676" height="70" fill="white"/>
</clipPath>
</defs>
</svg>
