<svg width="70" height="70" viewBox="0 0 70 70" fill="none" xmlns="http://www.w3.org/2000/svg">
<path d="M0 1.07111V45.0429H70V1.07111H0ZM27.8828 30.9985L24.9825 34.106L14.6686 23.0555L24.9825 12.0048L27.8828 15.1124L20.4693 23.0555L27.8828 30.9985ZM34.6307 36.307L30.6078 35.4497L35.3691 9.80348L39.3921 10.6609L34.6307 36.307ZM45.0175 34.106L42.1172 30.9985L49.5307 23.0555L42.1172 15.1124L45.0175 12.0048L55.3314 23.0555L45.0175 34.106Z" fill="white"/>
<path d="M70 60.6947V47.5H0V60.6947H22.4673V65.0964H18.3608V69.4913H51.6392V65.0964H47.5326V60.6947H70Z" fill="white"/>
</svg>
