<svg width="70" height="70" viewBox="0 0 70 70" fill="none" xmlns="http://www.w3.org/2000/svg">
<path d="M67.3593 30.6789L39.3211 2.64077C38.1321 1.44593 36.566 0.848511 35 0.848511C33.4339 0.848511 31.8679 1.44593 30.6789 2.64077L25.1339 8.18575L31.9955 15.0474C34.275 13.7075 37.2447 13.9975 39.1993 15.9522C41.154 17.9069 41.4382 20.8766 40.0984 23.1502L46.844 29.8959C49.1235 28.556 52.0932 28.846 54.0478 30.8007C56.3679 33.1208 56.3679 36.8793 54.0478 39.1994C51.7277 41.5194 47.9692 41.5194 45.6491 39.1994C43.6945 37.2447 43.4045 34.275 44.7443 31.9955L37.9987 25.2499C37.5173 25.5341 37.0127 25.7429 36.4848 25.8763V44.1179C39.0427 44.7791 40.9394 47.0818 40.9394 49.8485C40.9394 53.1314 38.2829 55.7879 35 55.7879C31.7171 55.7879 29.0606 53.1314 29.0606 49.8485C29.0606 47.0818 30.9573 44.7791 33.5151 44.1179V25.8763C32.5233 25.6211 31.5779 25.1281 30.8007 24.3509C28.846 22.3962 28.5618 19.4265 29.9016 17.1528L23.0342 10.2854L2.64074 30.6789C0.251061 33.0628 0.251061 36.9373 2.64074 39.3212L30.6789 67.3593C31.8679 68.5541 33.4339 69.1515 35 69.1515C36.566 69.1515 38.1321 68.5541 39.3211 67.3593L67.3593 39.3212C69.7489 36.9373 69.7489 33.0628 67.3593 30.6789Z" fill="white"/>
</svg>
