<svg width="48" height="70" viewBox="0 0 48 70" fill="none" xmlns="http://www.w3.org/2000/svg">
<g clip-path="url(#clip0)">
<path d="M0.00506223 18.5023L3.4618 62.725C3.51369 63.389 3.96319 63.9553 4.59818 64.1566L22.7876 69.9236C23.1093 70.0255 23.4546 70.0255 23.7763 69.9236L41.9657 64.1566C42.6007 63.9553 43.0502 63.389 43.1021 62.725L46.5588 18.5023C46.6331 17.5515 45.8817 16.7391 44.9281 16.7391H1.63584C0.682252 16.7391 -0.0691587 17.5515 0.00506223 18.5023ZM37.6942 32.2231H15.166L15.8459 38.4926H37.2042L35.807 56.3661L23.282 60.3372L10.7569 56.3661L10.027 47.0283H16.6011V51.6086L23.4577 53.4488L30.2732 51.6086L30.802 44.3089H9.81437L8.42098 26.4822H38.1429L37.6942 32.2231Z" fill="white"/>
<path d="M12.5442 4V14H9.2798V10.3143H6.26439V14H3V4H6.26439V7.54286H9.2798V4H12.5442Z" fill="white"/>
<path d="M16.2195 6.61429H13.3839V4H22.3195V6.61429H19.4839V14H16.2195V6.61429Z" fill="white"/>
<path d="M31.8125 14L31.7848 9.44286L29.6823 13.1H28.2438L26.1413 9.6V14H23.1674V4H25.8508L29.0045 9.32857L32.0753 4H34.7587L34.7864 14H31.8125Z" fill="white"/>
<path d="M36.3647 4H39.629V11.3857H44V14H36.3647V4Z" fill="white"/>
</g>
<defs>
<clipPath id="clip0">
<rect width="47.1739" height="70" fill="white"/>
</clipPath>
</defs>
</svg>
