<svg width="70" height="70" viewBox="0 0 70 70" fill="none" xmlns="http://www.w3.org/2000/svg">
<path fill-rule="evenodd" clip-rule="evenodd" d="M0 0H70V70H0V0ZM53.5111 58.6822C50.2667 58.6822 48.4322 56.99 47.0222 54.6878L41.6767 57.7933C43.6078 61.6089 47.5544 64.52 53.6633 64.52C59.9111 64.52 64.5633 61.2756 64.5633 55.3533C64.5633 49.86 61.4078 47.4167 55.8189 45.02L54.1744 44.3156C51.3522 43.0933 50.13 42.2945 50.13 40.3211C50.13 38.7245 51.3511 37.5022 53.2778 37.5022C55.1667 37.5022 56.3833 38.2989 57.5111 40.3211L62.6333 37.0322C60.4667 33.2211 57.46 31.7656 53.2778 31.7656C47.4033 31.7656 43.6444 35.5211 43.6444 40.4544C43.6444 45.81 46.7978 48.3433 51.5444 50.3656L53.1889 51.0711C56.1889 52.3833 57.9778 53.1822 57.9778 55.4378C57.9778 57.32 56.2367 58.6822 53.5111 58.6822ZM28.0189 58.6411C25.7589 58.6411 24.8189 57.0911 23.7856 55.2578L18.4311 58.4995C19.9822 61.7822 23.0322 64.5078 28.2989 64.5078C34.1278 64.5078 38.1211 61.4078 38.1211 54.5967V32.1411H31.5433V54.5078C31.5433 57.7956 30.18 58.6411 28.0189 58.6411Z" fill="white"/>
</svg>
