<svg width="70" height="70" viewBox="0 0 70 70" fill="none" xmlns="http://www.w3.org/2000/svg">
<path d="M63 0H7C3.15 0 0 3.15 0 7V63C0 66.85 3.15 70 7 70H63C66.85 70 70 66.85 70 63V7C70 3.15 66.85 0 63 0ZM21 59.5H10.5V28H21V59.5ZM15.75 22.05C12.25 22.05 9.45 19.25 9.45 15.75C9.45 12.25 12.25 9.45 15.75 9.45C19.25 9.45 22.05 12.25 22.05 15.75C22.05 19.25 19.25 22.05 15.75 22.05ZM59.5 59.5H49V40.95C49 38.1501 46.55 35.7 43.75 35.7C40.95 35.7 38.5 38.1501 38.5 40.95V59.5H28V28H38.5V32.2C40.25 29.4 44.1 27.3 47.25 27.3C53.9 27.3 59.5 32.9 59.5 39.55V59.5Z" fill="white"/>
</svg>
