<svg width="70" height="70" viewBox="0 0 70 70" fill="none" xmlns="http://www.w3.org/2000/svg">
<path d="M12.0711 12.2726C14.3393 14.0401 15.1907 13.9059 19.4536 13.6317L59.6347 11.3188C60.4861 11.3188 59.7776 10.5022 59.4948 10.368L52.8177 5.73926C51.5407 4.78843 49.8349 3.6976 46.5694 3.96885L7.66528 6.69301C6.24837 6.82718 5.96256 7.50968 6.5281 8.05218L12.0711 12.2726ZM14.4822 21.2559V61.8091C14.4822 63.9879 15.6164 64.8046 18.1735 64.6675L62.3317 62.2175C64.8888 62.0833 65.1746 60.5841 65.1746 58.8137V18.5317C65.1746 16.7642 64.4662 15.8105 62.9003 15.9447L16.7535 18.5317C15.0508 18.6688 14.4822 19.4855 14.4822 21.253V21.2559ZM58.0749 23.4288C58.3577 24.6538 58.0749 25.8788 56.7978 26.0188L54.6694 26.4271V56.3637C52.8208 57.3175 51.1181 57.8629 49.6981 57.8629C47.4238 57.8629 46.8552 57.1804 45.1525 55.1417L31.2358 34.1825V54.4592L35.6385 55.4158C35.6385 55.4158 35.6385 57.8658 32.0871 57.8658L22.2904 58.4083C22.0076 57.8658 22.2904 56.5037 23.2847 56.2325L25.8388 55.5529V28.74L22.2965 28.4659C22.0107 27.2409 22.7222 25.4734 24.7077 25.3363L35.2159 24.6567L49.7012 45.8871V27.1038L46.0069 26.6984C45.7241 25.1992 46.8582 24.1113 48.2782 23.9771L58.0749 23.4288ZM4.3997 3.01802L44.8697 0.159693C49.838 -0.24864 51.1181 0.0226098 54.2407 2.20135L67.1601 10.9105C69.2885 12.4067 70 12.8151 70 14.4484V62.2175C70 65.21 68.8659 66.9833 64.8918 67.2516L17.8907 69.9758C14.911 70.1129 13.488 69.7045 11.9251 67.7971L2.41117 55.9554C0.708453 53.7767 0 52.1462 0 50.2388V7.77801C0 5.33093 1.13717 3.28635 4.3997 3.01802Z" fill="white"/>
</svg>
