<svg width="70" height="70" viewBox="0 0 70 70" fill="none" xmlns="http://www.w3.org/2000/svg">
<path d="M60.0157 14.8745L32.2357 42.6516C33.0594 43.8309 33.7598 45.1045 34.3223 46.4544L41.2537 63.1424L60.0157 14.8709V14.8745ZM27.3474 37.7638L55.1311 9.98317L6.85435 28.7431L23.5442 35.6774C24.8838 36.2329 26.1591 36.9325 27.3474 37.7638ZM69.5092 9.23568L47.6372 65.501C46.2582 69.057 42.2771 70.8822 38.7497 69.5795C37.8905 69.262 37.1062 68.7703 36.4461 68.1352C35.786 67.5002 35.2643 66.7355 34.9139 65.8892L27.9825 49.2012C26.6338 45.9491 24.0495 43.3651 20.797 42.0166L4.10356 35.0859C0.641483 33.6454 -0.940765 29.643 0.576162 26.1378C0.94811 25.2813 1.48592 24.5069 2.15859 23.8592C2.83126 23.2115 3.62549 22.7033 4.49549 22.364L60.7669 0.487093C61.9897 -0.00559008 63.3303 -0.127856 64.622 0.135512C65.9136 0.39888 67.0993 1.03625 68.0315 1.9683C68.9636 2.90035 69.6011 4.08592 69.8645 5.37746C70.1279 6.669 70.0056 8.00947 69.5129 9.23205L69.5092 9.23568Z" fill="white"/>
</svg>
