<svg width="94" height="70" viewBox="0 0 94 70" fill="none" xmlns="http://www.w3.org/2000/svg">
<g clip-path="url(#clip0)">
<path d="M80.3177 40.2135C77.0546 40.2319 74.2291 41.0156 71.8593 42.1824C70.9843 40.4506 70.1093 38.9374 69.9637 37.8074C69.7996 36.4949 69.5991 35.6926 69.7996 34.1251C70 32.5572 70.9114 30.3333 70.9114 30.151C70.893 29.9869 70.7107 29.1848 68.8333 29.1666C66.9559 29.1484 65.3333 29.5312 65.151 30.0234C64.9687 30.5156 64.6041 31.6458 64.3671 32.8124C64.039 34.526 60.6119 40.5963 58.6614 43.7864C58.0234 42.5468 57.4765 41.453 57.367 40.5779C57.2031 39.2656 57.0024 38.4633 57.2031 36.8958C57.4036 35.3279 58.3151 33.1041 58.3151 32.9218C58.2968 32.7577 58.1145 31.9557 56.2371 31.9374C54.3593 31.9192 52.7371 32.302 52.5548 32.7942C52.3725 33.2864 52.172 34.4531 51.771 35.5833C51.388 36.7135 46.8307 46.8489 45.6458 49.4921C45.0442 50.8411 44.5158 51.9166 44.1328 52.6457C43.75 53.3749 44.1146 52.7004 44.0781 52.7734C43.75 53.3931 43.5677 53.7395 43.5677 53.7395V53.7579C43.3125 54.2136 43.039 54.651 42.9112 54.651C42.8201 54.651 42.6378 53.4296 42.9477 51.7527C43.6222 48.2343 45.2628 42.7475 45.2448 42.547C45.2448 42.4558 45.5545 41.4895 44.1873 40.9975C42.8566 40.5053 42.3828 41.3256 42.2732 41.3256C42.1639 41.3256 42.0727 41.6173 42.0727 41.6173C42.0727 41.6173 43.5493 35.4378 39.2472 35.4378C36.5493 35.4378 32.8305 38.3727 30.9894 41.0524C29.8227 41.6904 27.3435 43.0392 24.7185 44.4795C23.7159 45.0263 22.6769 45.6097 21.6925 46.1383L21.4922 45.9192C16.2786 40.3593 6.63541 36.4218 7.03645 28.9479C7.18228 26.2317 8.1302 19.0677 25.5575 10.3906C39.8309 3.28121 51.2606 5.23173 53.2474 9.57027C56.0729 15.7682 47.1406 27.289 32.3022 28.9479C26.6512 29.5859 23.6797 27.3984 22.9325 26.5781C22.1486 25.7213 22.0392 25.6848 21.7476 25.8489C21.2736 26.1041 21.5653 26.8697 21.7476 27.3255C22.1851 28.4739 24.008 30.5156 27.1069 31.5364C29.8229 32.4296 36.4585 32.9218 44.4793 29.8229C53.4663 26.3411 60.4845 16.6796 58.4246 8.60412C56.3283 0.382775 42.6929 -2.31514 29.8048 2.26038C22.1302 4.99475 13.8177 9.26037 7.83853 14.8567C0.729163 21.4921 -0.401044 27.289 0.0729137 29.6952C1.73195 38.2812 13.5625 43.8775 18.3021 48.0155C18.0651 48.143 17.8463 48.2706 17.6458 48.3801C15.276 49.5466 6.2526 54.2681 3.99218 59.2628C1.4401 64.9138 4.39322 68.9791 6.36197 69.5259C12.4505 71.2213 18.6849 68.177 22.0573 63.164C25.4113 58.151 25.0104 51.6431 23.4609 48.6718L23.406 48.5624L25.2654 47.4687C26.4687 46.7577 27.6536 46.1015 28.6925 45.5362C28.1094 47.1221 27.6899 48.9997 27.4713 51.7341C27.2161 54.9426 28.5286 59.0987 30.2604 60.7393C31.026 61.4501 31.9375 61.4685 32.5026 61.4685C34.5078 61.4685 35.4192 59.8094 36.4218 57.8226C37.6614 55.3982 38.7552 52.5909 38.7552 52.5909C38.7552 52.5909 37.388 60.1924 41.125 60.1924C42.4922 60.1924 43.8593 58.4242 44.4791 57.5128V57.531C44.4791 57.531 44.5156 57.4763 44.5885 57.3487C44.665 57.2356 44.7379 57.1202 44.8073 57.0025V56.9661C45.3541 56.0181 46.5755 53.8489 48.3984 50.2577C50.7498 45.6275 53.0104 39.8307 53.0104 39.8307C53.0104 39.8307 53.2291 41.2525 53.9036 43.5859C54.3045 44.9715 55.1795 46.4843 55.8539 47.9609C55.3071 48.7265 54.9789 49.1642 54.9789 49.1642L54.9972 49.1824C54.5599 49.7657 54.0675 50.3857 53.5573 51.0053C51.6979 53.2293 49.4739 55.7633 49.1823 56.4925C48.8359 57.3491 48.9088 57.9871 49.5833 58.4977C50.0755 58.8623 50.9505 58.935 51.8802 58.8623C53.5573 58.7527 54.7239 58.3336 55.3073 58.0782C56.2187 57.7501 57.2578 57.2579 58.2604 56.5287C60.0833 55.18 61.1953 53.2659 61.0859 50.7138C61.0312 49.3102 60.5755 47.9248 60.0104 46.6123C60.1744 46.3753 60.3387 46.1381 60.5026 45.8831C63.3828 41.672 65.6067 37.042 65.6067 37.042C65.6067 37.042 65.8255 38.4638 66.5 40.7972C66.8461 41.9821 67.539 43.2765 68.1588 44.5526C65.4609 46.7583 63.7656 49.3104 63.1822 50.9874C62.1067 54.0864 62.9453 55.49 64.5312 55.8182C65.242 55.964 66.263 55.6359 67.0284 55.3078C67.9763 54.9979 69.1248 54.469 70.1822 53.6854C72.0052 52.3364 73.7552 50.4588 73.664 47.925C73.6093 46.7583 73.2994 45.6098 72.8802 44.5161C75.177 43.5682 78.1482 43.0213 81.9218 43.477C90.0338 44.4249 91.638 49.4927 91.3282 51.6072C91.0184 53.722 89.323 54.8885 88.7578 55.2531C88.1926 55.5994 88.0104 55.7272 88.065 55.9822C88.138 56.3652 88.3932 56.3468 88.8854 56.2741C89.5598 56.1645 93.151 54.5423 93.2968 50.6415C93.5156 45.6277 88.7578 40.159 80.3177 40.2135V40.2135ZM17.7552 61.3046C15.0755 64.2395 11.3021 65.3515 9.69791 64.4036C7.96614 63.4009 8.64043 59.0806 11.9401 55.9635C13.9453 54.0676 16.5521 52.3176 18.2656 51.2421C18.6484 51.0051 19.2318 50.659 19.9245 50.2395C20.0338 50.1668 20.1068 50.1301 20.1068 50.1301C20.2344 50.0572 20.3802 49.9661 20.526 49.8749C21.7474 54.3228 20.5807 58.2239 17.7552 61.3046V61.3046ZM37.3515 47.9791C36.4218 50.2577 34.4531 56.1093 33.2682 55.7812C32.2472 55.5077 31.6276 51.078 33.0675 46.703C33.7967 44.4971 35.3461 41.8723 36.2576 40.8513C37.7343 39.2107 39.3383 38.6638 39.7396 39.3383C40.2135 40.2135 37.9349 46.5572 37.3515 47.9791ZM53.5208 55.7082C53.1198 55.909 52.7552 56.0546 52.5911 55.9454C52.4635 55.8725 52.755 55.5991 52.755 55.5991C52.755 55.5991 54.7784 53.4298 55.5805 52.4272C56.0362 51.844 56.5831 51.1696 57.1664 50.4037V50.6225C57.1666 53.2473 54.651 54.9973 53.5208 55.7082ZM65.9894 52.8645C65.6977 52.6458 65.7343 51.9713 66.7185 49.8567C67.1015 49.0182 67.9763 47.6145 69.4894 46.2838C69.6716 46.8306 69.7812 47.3591 69.7628 47.8515C69.7447 51.1327 67.4114 52.3541 65.9894 52.8645Z" fill="white"/>
</g>
<defs>
<clipPath id="clip0">
<rect width="93.3333" height="70" fill="white"/>
</clipPath>
</defs>
</svg>
