<svg width="69" height="70" viewBox="0 0 69 70" fill="none" xmlns="http://www.w3.org/2000/svg">
<g clip-path="url(#clip0)">
<path fill-rule="evenodd" clip-rule="evenodd" d="M68.2192 27.5342C68.2192 27.6712 68.2192 27.8082 68.2192 27.9452C68.1663 27.9804 68.0927 28.0034 68.0636 28.0527C66.753 30.2642 65.438 32.4734 64.1555 34.7011C64.0563 34.8731 64.1132 35.2211 64.2244 35.4145C65.3245 37.3274 66.4479 39.2268 67.5741 41.1246C67.7662 41.4483 68.003 41.7455 68.2192 42.0549C68.2192 42.1461 68.2192 42.2377 68.2192 42.3289C68.1345 42.5627 68.0319 42.7918 67.9675 43.0309C66.0295 50.2452 64.0962 57.4608 62.1595 64.6753C61.6944 66.4072 61.2196 68.1364 60.7421 69.8933C60.5058 69.8527 60.3258 69.836 60.1534 69.79C51.2419 67.4103 42.33 65.0318 33.4244 62.6296C33.1194 62.5472 32.7842 62.2825 32.6231 62.0086C31.4103 59.9453 30.2268 57.8644 29.0615 55.7737C28.8426 55.3811 28.6014 55.24 28.1501 55.2485C25.8 55.293 23.4488 55.2885 21.0985 55.3316C20.6042 55.3407 20.2553 55.2035 19.9007 54.8487C13.4622 48.4089 7.01 41.9829 0.558767 35.5557C0.384109 35.3816 0.186712 35.2304 0 35.0685C0 35.0229 0 34.9771 0 34.9315C0.170822 34.7859 0.352329 34.6512 0.510822 34.4933C6.97493 28.0503 13.4397 21.6082 19.8914 15.1527C20.2441 14.7998 20.5888 14.6555 21.0853 14.664C23.3893 14.7033 25.6945 14.6819 27.9981 14.7355C28.5878 14.7492 28.8923 14.5433 29.1662 14.0479C30.2797 12.0337 31.4158 10.0312 32.586 8.04944C32.7688 7.74012 33.1377 7.433 33.4789 7.34081C42.359 4.94286 51.2468 2.57314 60.1341 0.202042C60.3229 0.151631 60.5223 0.140807 60.7268 0.109985C60.8008 0.334506 60.8655 0.503274 60.9122 0.676699C62.9797 8.37273 65.0416 16.0703 67.1156 23.7645C67.4566 25.0285 67.8501 26.2781 68.2192 27.5342ZM56.7078 13.9037C56.559 14.1334 56.4938 14.2252 56.4377 14.3222C52.5307 21.0681 48.6277 27.8164 44.7082 34.5552C44.5004 34.9124 44.5488 35.1548 44.7382 35.4809C48.6071 42.1438 52.4658 48.8124 56.3282 55.4789C56.4233 55.643 56.5397 55.7948 56.6914 56.0192C56.7721 55.7857 56.8307 55.6407 56.8726 55.4911C58.7418 48.8259 60.6149 42.1618 62.4619 35.4904C62.5626 35.1264 62.517 34.6808 62.414 34.3078C61.0748 29.4567 59.7134 24.6119 58.3562 19.7659C57.823 17.862 57.286 15.959 56.7078 13.9037ZM14.1103 31.5161C14.4171 31.5346 14.5745 31.5523 14.7321 31.5523C22.4697 31.5537 30.2074 31.549 37.9449 31.5646C38.4101 31.5656 38.6245 31.377 38.8396 31.0041C42.656 24.3883 46.4859 17.7803 50.3118 11.17C50.4218 10.98 50.5201 10.7834 50.6681 10.5074C50.4197 10.5451 50.2636 10.5551 50.1145 10.5931C43.3842 12.3152 36.6534 14.0353 29.9282 15.7767C29.599 15.862 29.2652 16.0823 29.0227 16.3279C24.244 21.1681 19.4782 26.0212 14.7107 30.8724C14.5392 31.0474 14.3764 31.2304 14.1103 31.5161ZM50.6808 59.5286C50.567 59.2807 50.536 59.1955 50.4912 59.1183C46.5847 52.3722 42.6734 45.6285 38.7792 38.8753C38.5533 38.4835 38.2727 38.4337 37.8844 38.4341C30.1938 38.4408 22.5034 38.4386 14.8129 38.4411C14.6221 38.4411 14.4314 38.4703 14.1401 38.4942C14.3123 38.6909 14.4078 38.8115 14.5149 38.9207C19.3782 43.8679 24.2392 48.8175 29.1164 53.7509C29.3541 53.9915 29.7177 54.1577 30.0522 54.2444C35.519 55.6614 40.9904 57.0611 46.4614 58.4622C47.8219 58.8103 49.1844 59.1505 50.6808 59.5286Z" fill="white"/>
</g>
<defs>
<clipPath id="clip0">
<rect width="68.2192" height="70" fill="white"/>
</clipPath>
</defs>
</svg>
